<?xml version="1.0" encoding="utf-8"?>
<!-- Generator: Adobe Illustrator 23.0.1, SVG Export Plug-In . SVG Version: 6.00 Build 0)  -->
<svg version="1.1" id="Слой_1" xmlns="http://www.w3.org/2000/svg" xmlns:xlink="http://www.w3.org/1999/xlink" x="0px" y="0px"
	 viewBox="0 0 380 215" style="enable-background:new 0 0 380 215;" xml:space="preserve">
<style type="text/css">
	.st0{fill-rule:evenodd;clip-rule:evenodd;fill: #fed13f;}
	.st1{fill-rule:evenodd;clip-rule:evenodd;fill: rgba(161, 191, 205, 0.3);}
</style>

<path class="st1" d="M17.46,9.21l346.97,12.54c3.86,0.14,6.88,3.38,6.74,7.25l-5.71,158.1c-0.14,3.86-3.38,6.88-7.25,6.74
	L25.74,167.81c-3.86-0.14-6.88-3.38-6.74-7.25L10.21,15.95C10.35,12.09,13.6,9.07,17.46,9.21z"/>
<path class="st1" d="M95.99,76.9l-33.93-1.22L30.52,207L95.99,76.9z"/>
<path class="st0" d="M17.68,6.1h347.2c3.87,0,7,3.13,7,7v158.2c0,3.87-3.13,7-7,7l-333.2-14c-3.87,0-7-3.13-7-7l-14-144.2
	C10.68,9.23,13.81,6.1,17.68,6.1z"/>
<path class="st0" d="M89.95,79H56L29.95,209.2L89.95,79z"/>

</svg>
