<?xml version="1.0" encoding="utf-8"?>
<!-- Generator: Adobe Illustrator 23.0.1, SVG Export Plug-In . SVG Version: 6.00 Build 0)  -->
<svg version="1.1" id="Слой_1" xmlns="http://www.w3.org/2000/svg" xmlns:xlink="http://www.w3.org/1999/xlink" x="0px" y="0px"
	 viewBox="0 0 280 235" style="enable-background:new 0 0 280 235;" xml:space="preserve">
<style type="text/css">
	.st0{fill:#fed13f;}
	.st1{fill:rgba(161, 191, 205, 0.3);}
</style>

<path class="st1" d="M271.39,10.51L8.42,23.05c-3.86,0.14-6.88,3.38-6.74,7.25l5.71,158.1c0.14,3.86,3.38,6.88,7.25,6.74
	l248.48-26.03c3.86-0.14,6.88-3.38,6.74-7.25l8.78-144.61C278.5,13.39,275.26,10.37,271.39,10.51z"/>
<path class="st1" d="M223.17,142.91l30.84-1.22L273,232.98L223.17,142.91z"/>
<path class="st0" d="M273.18,3.4H9.98c-3.87,0-7,3.13-7,7v158.2c0,3.87,3.13,7,7,7l249.2-14c3.87,0,7-3.13,7-7l14-144.2
	C280.18,6.53,277.04,3.4,273.18,3.4z"/>
<path class="st0" d="M231.19,141.01h20.77l23.59,90.17L231.19,141.01z"/>


</svg>
